<svg width="256" height="257" viewBox="0 0 256 257" fill="none" xmlns="http://www.w3.org/2000/svg">
<rect y="0.854004" width="256" height="256" fill="white"/>
<rect y="0.854004" width="256" height="256" fill="#A5D4A6"/>
<path d="M29.5337 199.978L27.3371 197.685L50.7359 168.843H75.7584L74.8033 171.039H180.433L179.382 168.843H204.882L227.421 195.966V199.405L224.365 201.124H143.567L141.944 201.601L140.607 203.32H115.68L113.961 201.124H31.8258L29.5337 199.978Z" fill="#4B4A4A"/>
<path d="M31.0618 200.837L28.0056 198.927V204.562L32.1123 208.096H222.837L227.994 205.421V198.927L224.365 200.837H142.517L140.607 203.129H115.298L114.056 200.837H31.0618Z" fill="#8A8A8A"/>
<path d="M51.5955 67.4158V161.584H204.404V67.4158H51.5955Z" fill="#E1F1E1"/>
<path d="M50.4976 164.316H205.714C206.908 164.316 207.874 163.349 207.874 162.155V71.2305C207.874 66.9777 204.418 63.5193 200.168 63.5193H56.0437C51.7931 63.5193 48.3348 66.9777 48.3348 71.2305V162.153C48.3348 163.347 49.3037 164.316 50.4976 164.316ZM53.9074 69.5223H202.304V159.105H53.9074V69.5223Z" fill="black"/>
<path d="M231.522 198.389C231.52 198.334 231.517 198.277 231.513 198.222C231.46 197.513 231.217 196.807 230.802 196.127C230.738 196.019 230.666 195.918 230.58 195.825L207.254 169.313C206.983 169.004 206.643 168.803 206.281 168.686C206.164 168.441 205.921 168.269 205.632 168.269H179.111C178.839 168.269 178.592 168.423 178.469 168.668C178.345 168.913 178.372 169.202 178.533 169.421L179.259 170.394H75.9351L76.6612 169.421C76.8223 169.202 76.8488 168.913 76.7274 168.668C76.6061 168.423 76.3567 168.269 76.083 168.269H50.3718C50.0827 168.269 49.8378 168.441 49.723 168.688C49.3588 168.803 49.019 169.006 48.7497 169.313L25.4221 195.825C25.3382 195.918 25.2654 196.019 25.1992 196.127C24.6629 197.006 24.4179 197.941 24.4819 198.846L24.4753 204.269C24.557 207.162 29.5977 210.998 33.3142 210.998H222.687C225.353 210.998 228.227 209.208 229.893 207.438C231.014 206.248 231.564 205.09 231.526 203.991L231.522 198.389ZM51.9962 172.168C52.6119 171.469 52.687 170.482 52.2654 169.71H74.6485L73.9246 170.681C73.7613 170.902 73.737 171.191 73.8584 171.436C73.982 171.678 74.2292 171.833 74.5028 171.833H180.695C180.969 171.833 181.216 171.681 181.342 171.436C181.463 171.193 181.437 170.902 181.274 170.681L180.55 169.71H203.743C203.321 170.484 203.396 171.469 204.012 172.168L226.673 197.919C226.547 198.061 226.479 198.25 226.497 198.451C226.528 198.78 226.422 199.069 226.174 199.336C225.585 199.976 224.285 200.36 222.692 200.36L142.036 200.362H142.034C141.844 200.362 141.661 200.44 141.526 200.574C141.389 200.711 141.314 200.894 141.314 201.082C141.314 202.393 139.906 202.494 139.476 202.494H116.707C116.276 202.494 114.868 202.393 114.868 201.082C114.868 200.892 114.793 200.709 114.656 200.574C114.522 200.44 114.339 200.362 114.149 200.362H33.3142C31.1867 200.362 29.6241 199.669 29.5138 198.676C29.4873 198.438 29.3395 198.248 29.1452 198.138L51.9962 172.168ZM222.687 206.674H33.3142C31.8002 206.674 29.3306 204.836 28.7987 203.938L28.8054 200.316C29.6793 201.243 31.2683 201.804 33.3164 201.804L113.513 201.806C113.835 203.106 115.036 203.938 116.707 203.938H139.472C141.142 203.938 142.345 203.106 142.665 201.806L222.687 201.804C224.711 201.804 226.311 201.283 227.198 200.343L227.203 203.902C226.737 204.796 224.268 206.674 222.687 206.674Z" fill="black"/>
<path d="M183.361 177.445H71.6778L63.2097 188.685L191.995 188.687L183.361 177.445Z" fill="black"/>
<path d="M102.901 96.8995L102.901 96.0964H102.098H101.014C98.9467 96.0964 97.2689 94.4185 97.2689 92.3517V86.7918C97.2689 84.4136 98.4164 82.2554 100.292 80.7328L100.292 80.7328C101.884 79.4409 103.914 78.7395 106.009 78.5193L106.041 78.516L106.072 78.5102C106.193 78.4878 106.252 78.4798 106.313 78.4753C106.382 78.4702 106.467 78.4686 106.645 78.4686H138.057C144.05 78.4686 148.94 83.3592 148.94 89.3523V136.787C148.94 140.107 144.901 141.783 142.551 139.437L141.983 138.871L141.416 139.437C139.957 140.894 137.587 140.896 136.125 139.437L135.558 138.871L134.991 139.437C133.532 140.894 131.162 140.896 129.7 139.437L129.133 138.871L128.566 139.437C127.105 140.895 124.736 140.895 123.275 139.437L122.709 138.872L122.141 139.437C121.437 140.138 120.489 140.532 119.495 140.532C118.503 140.532 117.553 140.139 116.85 139.437L116.283 138.872L115.716 139.437C115.012 140.138 114.064 140.532 113.07 140.532C112.078 140.532 111.128 140.139 110.425 139.437L109.858 138.872L109.291 139.437C106.938 141.781 102.901 140.109 102.901 136.787L102.901 96.8995Z" fill="#A5D4A6" stroke="black" stroke-width="1.60609"/>
<path fill-rule="evenodd" clip-rule="evenodd" d="M146.076 89.3524C146.076 84.94 142.469 81.3332 138.057 81.3332H106.645C106.587 81.3332 106.53 81.3388 106.475 81.3496C106.07 81.4288 105.765 81.7854 105.765 82.2134V93.232V136.787C105.765 137.571 106.717 137.963 107.271 137.405L109.858 134.819L112.448 137.409C112.62 137.581 112.845 137.667 113.07 137.667C113.308 137.667 113.53 137.573 113.696 137.405L116.283 134.819L118.873 137.409C119.045 137.581 119.27 137.667 119.495 137.667C119.734 137.667 119.955 137.573 120.121 137.405L122.708 134.819L125.298 137.409C125.642 137.753 126.199 137.753 126.543 137.409L129.133 134.819L131.723 137.409C132.073 137.759 132.63 137.747 132.968 137.409L135.558 134.819L138.148 137.409C138.498 137.759 139.055 137.747 139.393 137.409L141.983 134.819L144.573 137.409C145.129 137.965 146.076 137.564 146.076 136.787L146.076 89.3524Z" fill="#222222"/>
<path d="M102.097 82.9566C103.24 82.0288 104.807 81.4248 106.537 81.3463C106.573 81.342 106.609 81.3397 106.645 81.3397C107.131 81.3397 107.525 81.7338 107.525 82.2199V92.3515C107.525 92.8376 107.131 93.2317 106.645 93.2317H101.013C100.527 93.2317 100.133 92.8376 100.133 92.3515V86.7916C100.133 85.2943 100.882 83.9431 102.097 82.9566Z" fill="#222222"/>
<rect x="111.984" y="84.9044" width="23.5455" height="1.60609" rx="0.803047" fill="#A5D4A6"/>
<rect x="111.984" y="89.6951" width="17.7167" height="1.60609" rx="0.803047" fill="#A5D4A6"/>
<rect x="121.341" y="125.672" width="16.2595" height="1.60609" rx="0.803047" fill="#A5D4A6"/>
<rect x="121.341" y="129.507" width="11.581" height="1.60609" rx="0.803047" fill="#A5D4A6"/>
<rect x="117.561" y="100.252" width="16.7196" height="1.60609" rx="0.803047" fill="#A5D4A6"/>
<rect x="110.076" y="106.541" width="11.5327" height="1.20457" rx="0.602285" fill="#A5D4A6"/>
<rect x="110.795" y="111.21" width="10.0955" height="1.20457" rx="0.602285" fill="#A5D4A6"/>
<rect x="112.262" y="115.88" width="7.16099" height="1.20457" rx="0.602285" fill="#A5D4A6"/>
<rect x="129.7" y="111.21" width="12.5955" height="1.20457" rx="0.602285" fill="#A5D4A6"/>
<rect x="131.443" y="115.88" width="9.10933" height="1.20457" rx="0.602285" fill="#A5D4A6"/>
<rect x="130.851" y="106.541" width="10.2946" height="1.20457" rx="0.602285" fill="#A5D4A6"/>
<line x1="108.319" y1="95.7834" x2="143.522" y2="95.7834" stroke="#A5D4A6" stroke-opacity="0.3" stroke-width="0.401523" stroke-miterlimit="1.30541" stroke-dasharray="2.41 1.2"/>
<line x1="108.319" y1="121.152" x2="143.522" y2="121.152" stroke="#A5D4A6" stroke-opacity="0.3" stroke-width="0.401523" stroke-miterlimit="1.30541" stroke-dasharray="2.41 1.2"/>
<path d="M116.726 128.086L115.263 127.658C115.094 127.609 114.976 127.451 114.976 127.275C114.976 127.054 115.155 126.875 115.375 126.875H116.273C116.439 126.875 116.601 126.925 116.736 127.018C116.819 127.073 116.93 127.06 117.001 126.99L117.472 126.53C117.568 126.436 117.555 126.281 117.448 126.198C117.116 125.938 116.701 125.793 116.276 125.792V125.142C116.276 125.023 116.178 124.925 116.059 124.925H115.626C115.507 124.925 115.409 125.023 115.409 125.142V125.792H115.375C114.513 125.792 113.819 126.533 113.899 127.412C113.956 128.036 114.433 128.544 115.034 128.72L116.422 129.126C116.592 129.176 116.709 129.334 116.709 129.51C116.709 129.73 116.531 129.909 116.31 129.909H115.412C115.247 129.909 115.084 129.859 114.949 129.767C114.866 129.711 114.755 129.725 114.685 129.794L114.213 130.255C114.117 130.348 114.131 130.504 114.238 130.586C114.569 130.846 114.984 130.991 115.409 130.993V131.643C115.409 131.762 115.507 131.859 115.626 131.859H116.059C116.178 131.859 116.276 131.762 116.276 131.643V130.99C116.907 130.978 117.499 130.603 117.708 130.005C117.999 129.171 117.51 128.315 116.726 128.086V128.086Z" fill="#A5D4A6"/>
<path d="M107.901 101.899L107.901 101.096H107.098H106.014C103.947 101.096 102.269 99.4185 102.269 97.3517V91.7918C102.269 89.4136 103.416 87.2554 105.292 85.7328L105.292 85.7328C106.884 84.4409 108.914 83.7395 111.009 83.5193L111.041 83.516L111.072 83.5102C111.193 83.4878 111.252 83.4798 111.313 83.4753C111.382 83.4702 111.467 83.4686 111.645 83.4686H143.057C149.05 83.4686 153.94 88.3592 153.94 94.3523V141.787C153.94 145.107 149.901 146.783 147.551 144.437L146.983 143.871L146.416 144.437C144.957 145.894 142.587 145.896 141.125 144.437L140.558 143.871L139.991 144.437C138.532 145.894 136.162 145.896 134.7 144.437L134.133 143.871L133.566 144.437C132.105 145.895 129.736 145.895 128.275 144.437L127.709 143.872L127.141 144.437C126.437 145.138 125.489 145.532 124.495 145.532C123.503 145.532 122.553 145.139 121.85 144.437L121.283 143.872L120.716 144.437C120.012 145.138 119.064 145.532 118.07 145.532C117.078 145.532 116.128 145.139 115.425 144.437L114.858 143.872L114.291 144.437C111.938 146.781 107.901 145.109 107.901 141.787L107.901 101.899Z" fill="#A5D4A6" stroke="black" stroke-width="1.60609"/>
<path fill-rule="evenodd" clip-rule="evenodd" d="M151.076 94.3524C151.076 89.94 147.469 86.3332 143.057 86.3332H111.645C111.587 86.3332 111.53 86.3388 111.475 86.3496C111.07 86.4288 110.765 86.7854 110.765 87.2134V98.232V141.787C110.765 142.571 111.717 142.963 112.271 142.405L114.858 139.819L117.448 142.409C117.62 142.581 117.845 142.667 118.07 142.667C118.308 142.667 118.53 142.573 118.696 142.405L121.283 139.819L123.873 142.409C124.045 142.581 124.27 142.667 124.495 142.667C124.734 142.667 124.955 142.573 125.121 142.405L127.708 139.819L130.298 142.409C130.642 142.753 131.199 142.753 131.543 142.409L134.133 139.819L136.723 142.409C137.073 142.759 137.63 142.747 137.968 142.409L140.558 139.819L143.148 142.409C143.498 142.759 144.055 142.747 144.393 142.409L146.983 139.819L149.573 142.409C150.129 142.965 151.076 142.564 151.076 141.787L151.076 94.3524Z" fill="#222222"/>
<path d="M107.097 87.9566C108.24 87.0288 109.807 86.4248 111.537 86.3463C111.573 86.342 111.609 86.3397 111.645 86.3397C112.131 86.3397 112.525 86.7338 112.525 87.2199V97.3515C112.525 97.8376 112.131 98.2317 111.645 98.2317H106.013C105.527 98.2317 105.133 97.8376 105.133 97.3515V91.7916C105.133 90.2943 105.882 88.9431 107.097 87.9566Z" fill="#222222"/>
<rect x="116.984" y="89.9044" width="23.5455" height="1.60609" rx="0.803047" fill="#A5D4A6"/>
<rect x="116.984" y="94.6951" width="17.7167" height="1.60609" rx="0.803047" fill="#A5D4A6"/>
<rect x="126.341" y="130.672" width="16.2595" height="1.60609" rx="0.803047" fill="#A5D4A6"/>
<rect x="126.341" y="134.507" width="11.581" height="1.60609" rx="0.803047" fill="#A5D4A6"/>
<rect x="122.561" y="105.252" width="16.7196" height="1.60609" rx="0.803047" fill="#A5D4A6"/>
<rect x="115.076" y="111.541" width="11.5327" height="1.20457" rx="0.602285" fill="#A5D4A6"/>
<rect x="115.795" y="116.21" width="10.0955" height="1.20457" rx="0.602285" fill="#A5D4A6"/>
<rect x="117.262" y="120.88" width="7.16099" height="1.20457" rx="0.602285" fill="#A5D4A6"/>
<rect x="134.7" y="116.21" width="12.5955" height="1.20457" rx="0.602285" fill="#A5D4A6"/>
<rect x="136.443" y="120.88" width="9.10933" height="1.20457" rx="0.602285" fill="#A5D4A6"/>
<rect x="135.851" y="111.541" width="10.2946" height="1.20457" rx="0.602285" fill="#A5D4A6"/>
<line x1="113.319" y1="100.783" x2="148.522" y2="100.783" stroke="#A5D4A6" stroke-opacity="0.3" stroke-width="0.401523" stroke-miterlimit="1.30541" stroke-dasharray="2.41 1.2"/>
<line x1="113.319" y1="126.152" x2="148.522" y2="126.152" stroke="#A5D4A6" stroke-opacity="0.3" stroke-width="0.401523" stroke-miterlimit="1.30541" stroke-dasharray="2.41 1.2"/>
<path d="M121.726 133.086L120.263 132.658C120.094 132.609 119.976 132.451 119.976 132.275C119.976 132.054 120.155 131.875 120.375 131.875H121.273C121.439 131.875 121.601 131.925 121.736 132.018C121.819 132.073 121.93 132.06 122.001 131.99L122.472 131.53C122.568 131.436 122.555 131.281 122.448 131.198C122.116 130.938 121.701 130.793 121.276 130.792V130.142C121.276 130.023 121.178 129.925 121.059 129.925H120.626C120.507 129.925 120.409 130.023 120.409 130.142V130.792H120.375C119.513 130.792 118.819 131.533 118.899 132.412C118.956 133.036 119.433 133.544 120.034 133.72L121.422 134.126C121.592 134.176 121.709 134.334 121.709 134.51C121.709 134.73 121.531 134.909 121.31 134.909H120.412C120.247 134.909 120.084 134.859 119.949 134.767C119.866 134.711 119.755 134.725 119.685 134.794L119.213 135.255C119.117 135.348 119.131 135.504 119.238 135.586C119.569 135.846 119.984 135.991 120.409 135.993V136.643C120.409 136.762 120.507 136.859 120.626 136.859H121.059C121.178 136.859 121.276 136.762 121.276 136.643V135.99C121.907 135.978 122.499 135.603 122.708 135.005C122.999 134.171 122.51 133.315 121.726 133.086V133.086Z" fill="#A5D4A6"/>
<path d="M112.901 106.899L112.901 106.096H112.098H111.014C108.947 106.096 107.269 104.419 107.269 102.352V96.7918C107.269 94.4136 108.416 92.2554 110.292 90.7328L110.292 90.7328C111.884 89.4409 113.914 88.7395 116.009 88.5193L116.041 88.516L116.072 88.5102C116.193 88.4878 116.252 88.4798 116.313 88.4753C116.382 88.4702 116.467 88.4686 116.645 88.4686H148.057C154.05 88.4686 158.94 93.3592 158.94 99.3523V146.787C158.94 150.107 154.901 151.783 152.551 149.437L151.983 148.871L151.416 149.437C149.957 150.894 147.587 150.896 146.125 149.437L145.558 148.871L144.991 149.437C143.532 150.894 141.162 150.896 139.7 149.437L139.133 148.871L138.566 149.437C137.105 150.895 134.736 150.895 133.275 149.437L132.709 148.872L132.141 149.437C131.437 150.138 130.489 150.532 129.495 150.532C128.503 150.532 127.553 150.139 126.85 149.437L126.283 148.872L125.716 149.437C125.012 150.138 124.064 150.532 123.07 150.532C122.078 150.532 121.128 150.139 120.425 149.437L119.858 148.872L119.291 149.437C116.938 151.781 112.901 150.109 112.901 146.787L112.901 106.899Z" fill="#A5D4A6" stroke="black" stroke-width="1.60609"/>
<path fill-rule="evenodd" clip-rule="evenodd" d="M156.076 99.3524C156.076 94.94 152.469 91.3332 148.057 91.3332H116.645C116.587 91.3332 116.53 91.3388 116.475 91.3496C116.07 91.4288 115.765 91.7854 115.765 92.2134V103.232V146.787C115.765 147.571 116.717 147.963 117.271 147.405L119.858 144.819L122.448 147.409C122.62 147.581 122.845 147.667 123.07 147.667C123.308 147.667 123.53 147.573 123.696 147.405L126.283 144.819L128.873 147.409C129.045 147.581 129.27 147.667 129.495 147.667C129.734 147.667 129.955 147.573 130.121 147.405L132.708 144.819L135.298 147.409C135.642 147.753 136.199 147.753 136.543 147.409L139.133 144.819L141.723 147.409C142.073 147.759 142.63 147.747 142.968 147.409L145.558 144.819L148.148 147.409C148.498 147.759 149.055 147.747 149.393 147.409L151.983 144.819L154.573 147.409C155.129 147.965 156.076 147.564 156.076 146.787L156.076 99.3524Z" fill="#222222"/>
<path d="M112.097 92.9566C113.24 92.0288 114.807 91.4248 116.537 91.3463C116.573 91.342 116.609 91.3397 116.645 91.3397C117.131 91.3397 117.525 91.7338 117.525 92.2199V102.352C117.525 102.838 117.131 103.232 116.645 103.232H111.013C110.527 103.232 110.133 102.838 110.133 102.352V96.7916C110.133 95.2943 110.882 93.9431 112.097 92.9566Z" fill="#222222"/>
<rect x="121.984" y="94.9044" width="23.5455" height="1.60609" rx="0.803047" fill="#A5D4A6"/>
<rect x="121.984" y="99.6951" width="17.7167" height="1.60609" rx="0.803047" fill="#A5D4A6"/>
<rect x="131.341" y="135.672" width="16.2595" height="1.60609" rx="0.803047" fill="#A5D4A6"/>
<rect x="131.341" y="139.507" width="11.581" height="1.60609" rx="0.803047" fill="#A5D4A6"/>
<rect x="127.561" y="110.252" width="16.7196" height="1.60609" rx="0.803047" fill="#A5D4A6"/>
<rect x="120.076" y="116.541" width="11.5327" height="1.20457" rx="0.602285" fill="#A5D4A6"/>
<rect x="120.795" y="121.21" width="10.0955" height="1.20457" rx="0.602285" fill="#A5D4A6"/>
<rect x="122.262" y="125.88" width="7.16099" height="1.20457" rx="0.602285" fill="#A5D4A6"/>
<rect x="139.7" y="121.21" width="12.5955" height="1.20457" rx="0.602285" fill="#A5D4A6"/>
<rect x="141.443" y="125.88" width="9.10933" height="1.20457" rx="0.602285" fill="#A5D4A6"/>
<rect x="140.851" y="116.541" width="10.2946" height="1.20457" rx="0.602285" fill="#A5D4A6"/>
<line x1="118.319" y1="105.783" x2="153.522" y2="105.783" stroke="#A5D4A6" stroke-opacity="0.3" stroke-width="0.401523" stroke-miterlimit="1.30541" stroke-dasharray="2.41 1.2"/>
<line x1="118.319" y1="131.152" x2="153.522" y2="131.152" stroke="#A5D4A6" stroke-opacity="0.3" stroke-width="0.401523" stroke-miterlimit="1.30541" stroke-dasharray="2.41 1.2"/>
<path d="M126.726 138.086L125.263 137.658C125.094 137.609 124.976 137.451 124.976 137.275C124.976 137.054 125.155 136.875 125.375 136.875H126.273C126.439 136.875 126.601 136.925 126.736 137.018C126.819 137.073 126.93 137.06 127.001 136.99L127.472 136.53C127.568 136.436 127.555 136.281 127.448 136.198C127.116 135.938 126.701 135.793 126.276 135.792V135.142C126.276 135.023 126.178 134.925 126.059 134.925H125.626C125.507 134.925 125.409 135.023 125.409 135.142V135.792H125.375C124.513 135.792 123.819 136.533 123.899 137.412C123.956 138.036 124.433 138.544 125.034 138.72L126.422 139.126C126.592 139.176 126.709 139.334 126.709 139.51C126.709 139.73 126.531 139.909 126.31 139.909H125.412C125.247 139.909 125.084 139.859 124.949 139.767C124.866 139.711 124.755 139.725 124.685 139.794L124.213 140.255C124.117 140.348 124.131 140.504 124.238 140.586C124.569 140.846 124.984 140.991 125.409 140.993V141.643C125.409 141.762 125.507 141.859 125.626 141.859H126.059C126.178 141.859 126.276 141.762 126.276 141.643V140.99C126.907 140.978 127.499 140.603 127.708 140.005C127.999 139.171 127.51 138.315 126.726 138.086V138.086Z" fill="#A5D4A6"/>
<g filter="url(#filter0_d)">
<path d="M232.132 65.5045C232.132 80.8212 219.717 93.2317 204.404 93.2317C189.092 93.2317 176.677 80.8212 176.677 65.5045C176.677 50.1966 189.092 37.7772 204.404 37.7772C219.717 37.7772 232.132 50.1966 232.132 65.5045Z" fill="#F8BF79"/>
<path d="M232.132 65.5045C232.132 80.8212 219.717 93.2317 204.404 93.2317C189.092 93.2317 176.677 80.8212 176.677 65.5045C176.677 50.1966 189.092 37.7772 204.404 37.7772C219.717 37.7772 232.132 50.1966 232.132 65.5045Z" stroke="black" stroke-width="4"/>
</g>
<path d="M195.809 63.2135L190.652 74.1011V78.8764H194.663L197.146 77.5394L204.404 78.8764L211.09 80.4045L213.955 78.8764L217.966 68.9439V63.2135L215.292 60.3484H209.753L211.09 54.809L209.753 50.9888C208.861 50.8615 206.811 50.6832 205.742 50.9888C204.672 51.2944 201.221 58.2472 199.629 61.6854L195.809 63.2135Z" fill="#D6D6D6"/>
<path d="M218.687 67.4416C219.24 66.5043 219.554 65.5045 219.554 64.2957C219.554 61.5174 217.204 58.8938 214.137 58.8938H211.834C212.144 58.0852 212.392 57.1182 212.392 55.9561C212.392 51.3613 210.013 49.3455 206.379 49.3455C202.49 49.3455 202.712 55.3377 201.849 56.2004C200.414 57.6362 198.718 60.3946 197.509 61.4647H191.275C190.16 61.4647 189.255 62.369 189.255 63.4846V78.6336C189.255 79.7492 190.16 80.6535 191.275 80.6535H195.315C196.255 80.6535 197.045 80.0113 197.27 79.1418C200.08 79.205 202.008 81.6628 208.493 81.6628C208.949 81.6628 209.454 81.6635 209.896 81.6635C214.764 81.6635 216.965 79.175 217.025 75.6461C217.866 74.4831 218.306 72.9242 218.119 71.4176C218.741 70.2529 218.982 68.8711 218.687 67.4416ZM214.789 70.8395C215.582 72.1732 214.869 73.9583 213.909 74.4733C214.395 77.5524 212.798 78.633 210.556 78.633H208.169C203.647 78.633 200.719 76.2458 197.335 76.2458V64.4945H198.024C199.814 64.4945 202.315 60.0199 203.992 58.3427C205.782 56.5526 205.185 53.5689 206.379 52.3753C209.363 52.3753 209.363 54.457 209.363 55.9561C209.363 58.4286 207.573 59.5364 207.573 61.9236H214.137C215.469 61.9236 216.518 63.1172 216.524 64.3108C216.529 65.5038 215.715 66.6974 215.118 66.6974C215.969 67.6162 216.151 69.5528 214.789 70.8395V70.8395ZM194.81 76.6138C194.81 77.4504 194.132 78.1287 193.295 78.1287C192.459 78.1287 191.78 77.4504 191.78 76.6138C191.78 75.7771 192.459 75.0989 193.295 75.0989C194.132 75.0989 194.81 75.7771 194.81 76.6138Z" fill="#222222"/>
<path d="M232 65.5C232 50.318 219.682 38 204.5 38C189.318 38 177 50.318 177 65.5C177 80.682 189.318 93 204.5 93C219.682 93 232 80.682 232 65.5Z" fill="#66BB6A"/>
<mask id="mask0" mask-type="alpha" maskUnits="userSpaceOnUse" x="177" y="38" width="55" height="55">
<path d="M232 65.5C232 50.318 219.682 38 204.5 38C189.318 38 177 50.318 177 65.5C177 80.682 189.318 93 204.5 93C219.682 93 232 80.682 232 65.5Z" fill="black"/>
</mask>
<g mask="url(#mask0)">
<path d="M208.405 67.4527C208.519 67.6967 208.747 67.9083 208.747 67.9083C213.612 68.5104 220.496 67.8432 225.751 67.1272C222.741 73.5873 217.371 77.9157 212.408 77.9157C203.166 77.9157 196.006 66.6879 196.006 66.6879C198.87 64.1494 203.605 55.8994 210.439 55.8994C217.274 55.8994 220.235 59.642 220.235 59.642L221 58.4379C221 58.4379 217.811 47.2751 208.78 47.2751C199.749 47.2751 190.164 62.0666 184.55 65.4837C184.55 65.4837 192.263 83.7574 209.105 83.7574C223.262 83.7574 226.809 70.2352 227.476 66.8831C229.364 66.6065 230.926 66.3299 231.967 66.1509C232.309 65.3698 232.7 64.0192 232.407 62.213C226.809 64.3609 218.266 66.8018 208.243 66.8018C208.243 66.8018 208.275 67.1435 208.405 67.4527Z" fill="white"/>
</g>
<defs>
<filter id="filter0_d" x="170.677" y="34.7772" width="67.4546" height="67.4546" filterUnits="userSpaceOnUse" color-interpolation-filters="sRGB">
<feFlood flood-opacity="0" result="BackgroundImageFix"/>
<feColorMatrix in="SourceAlpha" type="matrix" values="0 0 0 0 0 0 0 0 0 0 0 0 0 0 0 0 0 0 127 0"/>
<feOffset dy="3"/>
<feGaussianBlur stdDeviation="2"/>
<feColorMatrix type="matrix" values="0 0 0 0 0.341667 0 0 0 0 0.341667 0 0 0 0 0.341667 0 0 0 0.2 0"/>
<feBlend mode="normal" in2="BackgroundImageFix" result="effect1_dropShadow"/>
<feBlend mode="normal" in="SourceGraphic" in2="effect1_dropShadow" result="shape"/>
</filter>
</defs>
</svg>
